<svg xmlns="http://www.w3.org/2000/svg" width="64.385" height="49.068" viewBox="0 0 64.385 49.068">
  <g id="_001lighticons-27" data-name="001lighticons-27" transform="translate(-15.503 -12.787)">
    <path id="Path_16" data-name="Path 16" d="M92.506,15.854a6.568,6.568,0,0,0-3.613,1.082.947.947,0,0,1-1.128-.066,4.379,4.379,0,0,0-7.077,2.4.952.952,0,0,1-.924.738.941.941,0,0,1-.357-.07A4.381,4.381,0,0,0,73.375,24a4.431,4.431,0,0,0,.028.478,8.847,8.847,0,0,1,8.131,1.205A12.137,12.137,0,0,1,96.48,27.709a6.591,6.591,0,0,0-3.973-11.855Z" transform="translate(-19.717 -0.882)" fill="none" stroke="#fff" stroke-width="1"/>
    <path id="Path_17" data-name="Path 17" d="M47.529,68.714l.045-.326c-.437.039-.878.064-1.323.064a15.02,15.02,0,0,1-3.167-.347l-.028.2-2.134,3.53,2.5,1.735-2.5,6.746,7.131-6.312-3.566-2.169,3.042-3.124Z" transform="translate(-8.564 -18.839)" fill="#fff" stroke="#fff" stroke-width="1"/>
    <path id="Path_18" data-name="Path 18" d="M60.386,21.78a8.487,8.487,0,0,0-12.57-7.446,6.334,6.334,0,0,0-3.468-1.047A6.254,6.254,0,0,0,38.532,17.2a6.268,6.268,0,0,0-7.516,7.452,8.771,8.771,0,0,0-3.676,4.7,8.828,8.828,0,1,0,1.355,16.4,8.809,8.809,0,0,0,4.088,4.663l.449-.742.1-.716a7.268,7.268,0,0,1-3.437-4.529.769.769,0,0,0-1.161-.46,7.286,7.286,0,1,1-1.159-12.9.773.773,0,0,0,1.043-.543,7.281,7.281,0,0,1,11.766-3.987.769.769,0,0,0,.916.053,10.642,10.642,0,1,1,2.956,19.122.776.776,0,0,0-.888.377,7.281,7.281,0,0,1-2.861,2.9l-.253,1.838a8.834,8.834,0,0,0,4.166-3.478A12.155,12.155,0,0,0,57.074,28.5a8.482,8.482,0,0,0,3.312-6.718Zm-4.519,5.257A12.137,12.137,0,0,0,40.922,25.01a8.847,8.847,0,0,0-8.131-1.205,4.367,4.367,0,0,1,4.357-4.863,4.369,4.369,0,0,1,1.647.323.948.948,0,0,0,1.281-.668,4.379,4.379,0,0,1,7.077-2.4.948.948,0,0,0,1.128.066,6.592,6.592,0,0,1,7.587,10.774Z" transform="translate(0 0)" fill="#fff" stroke="#fff" stroke-width="1"/>
  </g>
</svg>
